<mxfile host="app.diagrams.net" modified="2023-10-16T22:54:33.870Z" agent="Mozilla/5.0 (Windows NT 10.0; Win64; x64) AppleWebKit/537.36 (KHTML, like Gecko) Chrome/117.0.0.0 Safari/537.36" version="22.0.4" etag="f7kU-HTZ0VnbZwwIi-Zi" type="github">
  <diagram name="Page-1" id="-MYS6zd6VAHHlIQvdBBh">
    <mxGraphModel>
      <root>
        <mxCell id="0" />
        <mxCell id="1" parent="0" />
      </root>
    </mxGraphModel>
  </diagram>
</mxfile>
